<svg width="25" height="24" viewBox="0 0 25 24" fill="none" xmlns="http://www.w3.org/2000/svg">
<g clip-path="url(#clip0_72_62)">
<path d="M9.875 20.25C9.875 20.6208 9.76503 20.9834 9.559 21.2917C9.35298 21.6 9.06014 21.8404 8.71753 21.9823C8.37492 22.1242 7.99792 22.1613 7.6342 22.089C7.27049 22.0166 6.9364 21.838 6.67417 21.5758C6.41195 21.3136 6.23337 20.9795 6.16103 20.6158C6.08868 20.2521 6.12581 19.8751 6.26773 19.5325C6.40964 19.1899 6.64996 18.897 6.95831 18.691C7.26665 18.485 7.62916 18.375 8 18.375C8.49728 18.375 8.97419 18.5725 9.32582 18.9242C9.67745 19.2758 9.875 19.7527 9.875 20.25ZM17.75 18.375C17.3792 18.375 17.0166 18.485 16.7083 18.691C16.4 18.897 16.1596 19.1899 16.0177 19.5325C15.8758 19.8751 15.8387 20.2521 15.911 20.6158C15.9834 20.9795 16.162 21.3136 16.4242 21.5758C16.6864 21.838 17.0205 22.0166 17.3842 22.089C17.7479 22.1613 18.1249 22.1242 18.4675 21.9823C18.8101 21.8404 19.103 21.6 19.309 21.2917C19.515 20.9834 19.625 20.6208 19.625 20.25C19.625 19.7527 19.4275 19.2758 19.0758 18.9242C18.7242 18.5725 18.2473 18.375 17.75 18.375ZM22.5753 7.08094L20.0169 15.3966C19.8535 15.9343 19.5211 16.4051 19.069 16.739C18.6169 17.0729 18.0692 17.2521 17.5072 17.25H8.27469C7.7046 17.2482 7.15046 17.0616 6.6953 16.7183C6.24015 16.3751 5.90848 15.8936 5.75 15.3459L2.54469 4.125H1.625C1.32663 4.125 1.04048 4.00647 0.829505 3.7955C0.618526 3.58452 0.5 3.29837 0.5 3C0.5 2.70163 0.618526 2.41548 0.829505 2.2045C1.04048 1.99353 1.32663 1.875 1.625 1.875H2.82687C3.23407 1.87626 3.62988 2.00951 3.95493 2.25478C4.27998 2.50004 4.51674 2.84409 4.62969 3.23531L5.31312 5.625H21.5C21.6761 5.62499 21.8497 5.6663 22.0069 5.74561C22.164 5.82492 22.3004 5.94001 22.405 6.08164C22.5096 6.22326 22.5795 6.38746 22.6091 6.56102C22.6387 6.73458 22.6271 6.91266 22.5753 7.08094ZM19.9766 7.875H5.95531L7.91375 14.7281C7.93617 14.8065 7.98354 14.8755 8.04867 14.9245C8.1138 14.9736 8.19315 15.0001 8.27469 15H17.5072C17.5875 15.0002 17.6656 14.9746 17.7303 14.927C17.7949 14.8794 17.8426 14.8123 17.8662 14.7356L19.9766 7.875Z" fill="#999999"/>
</g>
<defs>
<clipPath id="clip0_72_62">
<rect width="24" height="24" fill="white" transform="translate(0.5)"/>
</clipPath>
</defs>
</svg>
