<svg width="25" height="24" viewBox="0 0 25 24" fill="none" xmlns="http://www.w3.org/2000/svg">
<path d="M21.2712 9.45468L13.7759 2.37937L13.7609 2.36531C13.4165 2.05008 12.9665 1.87524 12.4995 1.87524C12.0326 1.87524 11.5826 2.05008 11.2381 2.36531L11.2222 2.37937L3.72875 9.45468C3.53872 9.6305 3.38702 9.84364 3.28313 10.0808C3.17924 10.3179 3.12541 10.5739 3.125 10.8328V19.5C3.125 19.9973 3.32254 20.4742 3.67417 20.8258C4.02581 21.1775 4.50272 21.375 5 21.375H9.5C9.99728 21.375 10.4742 21.1775 10.8258 20.8258C11.1775 20.4742 11.375 19.9973 11.375 19.5V15.375H13.625V19.5C13.625 19.9973 13.8225 20.4742 14.1742 20.8258C14.5258 21.1775 15.0027 21.375 15.5 21.375H20C20.4973 21.375 20.9742 21.1775 21.3258 20.8258C21.6775 20.4742 21.875 19.9973 21.875 19.5V10.8328C21.8746 10.5739 21.8208 10.3179 21.7169 10.0808C21.613 9.84364 21.4613 9.6305 21.2712 9.45468ZM19.625 19.125H15.875V15C15.875 14.7538 15.8265 14.5099 15.7323 14.2825C15.638 14.055 15.4999 13.8483 15.3258 13.6742C15.1517 13.5001 14.945 13.362 14.7175 13.2677C14.49 13.1735 14.2462 13.125 14 13.125H11C10.5027 13.125 10.0258 13.3225 9.67417 13.6742C9.32254 14.0258 9.125 14.5027 9.125 15V19.125H5.375V10.995L12.5 4.26843L19.625 10.995V19.125Z" fill="#999999"/>
</svg>
